<svg width="16" height="12" xmlns="http://www.w3.org/2000/svg" xmlns:xlink="http://www.w3.org/1999/xlink" xmlns:svgjs="http://svgjs.com/svgjs" viewBox="0 0.133 16 11.734" fill="#555"><svg xmlns="http://www.w3.org/2000/svg" width="16" height="12" viewBox="2 1.999 15 11"><path paint-order="stroke fill markers" fill-rule="evenodd" d="M15.929 11.75c0 .133-.126.25-.268.25H3.339c-.142 0-.268-.117-.268-.25v-6c.176.187.369.359.578.515C4.846 7.125 6.051 8 7.215 8.906c.628.492 1.406 1.093 2.277 1.093h.016c.87 0 1.65-.601 2.277-1.093a113.157 113.157 0 013.566-2.64c.21-.157.402-.329.578-.516v6zm0-8.212c0 .665-.687 1.532-1.23 1.93a492.67 492.67 0 00-3.358 2.477C10.898 8.281 10.094 9 9.508 9h-.016c-.586 0-1.39-.719-1.834-1.055a520.868 520.868 0 00-3.356-2.477c-.754-.554-1.23-1.328-1.23-2.218 0-.133.125-.25.267-.25h12.322c.318 0 .268.343.268.538zM17 3.25C17 2.562 16.397 2 15.66 2H3.34C2.602 2 2 2.561 2 3.25v8.5c0 .687.603 1.25 1.34 1.25h12.32c.737 0 1.34-.563 1.34-1.25v-8.5z"/></svg></svg>