<svg width="13" height="21" xmlns="http://www.w3.org/2000/svg" xmlns:xlink="http://www.w3.org/1999/xlink" xmlns:svgjs="http://svgjs.com/svgjs" viewBox="0.2 0 12.6 21" fill="#555"><svg xmlns="http://www.w3.org/2000/svg" width="13" height="21" viewBox="2 2 12 20"><path paint-order="stroke fill markers" fill-rule="evenodd" d="M9.25 20c0 .687-.563 1.25-1.25 1.25-.688 0-1.25-.563-1.25-1.25 0-.688.562-1.25 1.25-1.25.687 0 1.25.562 1.25 1.25zm3.25-2.5c0 .265-.234.5-.5.5H4a.514.514 0 01-.5-.5v-11c0-.266.234-.5.5-.5h8c.266 0 .5.234.5.5v11zm-3-13.25c0 .14-.11.25-.25.25h-2.5c-.14 0-.25-.11-.25-.25S6.61 4 6.75 4h2.5c.14 0 .25.11.25.25zM14 4c0-1.094-.906-2-2-2H4c-1.094 0-2 .906-2 2v16c0 1.094.906 2 2 2h8c1.094 0 2-.906 2-2V4z"/></svg></svg>